<?xml version="1.0" encoding="utf-8"?>
<!-- Generator: Adobe Illustrator 15.1.0, SVG Export Plug-In . SVG Version: 6.00 Build 0)  -->
<!DOCTYPE svg PUBLIC "-//W3C//DTD SVG 1.1//EN" "http://www.w3.org/Graphics/SVG/1.1/DTD/svg11.dtd">
<svg version="1.1" id="layer" xmlns="http://www.w3.org/2000/svg" xmlns:xlink="http://www.w3.org/1999/xlink" x="0px" y="0px"
	 width="713px" height="248px" viewBox="0 0 713 248" enable-background="new 0 0 713 248" xml:space="preserve">
<g>
	<path fill="#092041" d="M424.059,39.811c7.067-0.235,14.959-2.475,18.141-5.418c-2.944,5.183-7.067,9.069-16.49,12.015
		c-3.181,1.178-2.945,3.181,0.942,2.944c3.65-0.234,8.127-2.709,9.541-3.416c-2.003,2.709-4.123,5.891-13.43,7.658
		c-2.002,0.941-1.413,3.416,3.416,1.767c-1.178,1.532-3.65,2.474-6.359,2.944c-2.945,0.707-2.003,2.709,2.709,2.238
		c-3.182,2.002-6.832,2.475-9.307,2.709c-2.237,0.471-0.471,3.182,4.829,2.002c-2.474,1.178-4.122,2.002-8.834,2.475
		c-0.471,0-0.941,0.236-1.296,0.471c-3.416,0.471-8.127,1.178-10.483,3.652c-3.65,4.123-6.832,13.545-9.306,19.317
		c-2.237,5.653-12.957,23.322-26.031,21.084c0.706,1.769,1.179,3.416,2.002,4.712c1.414,4.123,5.419,13.43,14.253,19.789
		c7.539,4.712,11.545,6.598,11.545,11.544c0,2.237-1.18,1.768-2.475,1.648c-1.414,0-2.71,0.236-2.945,1.768
		c-0.234,1.532-1.412,2.002-2.709,1.531c-1.648-0.472-2.944-0.235-3.416,1.178c-0.706,1.413-1.178,0.706-2.237,0.706
		c-1.178-0.234-2.237,0-3.181,0.942c-0.706,0.942-2.237,0.707-3.651-0.235c-1.413-0.707-2.474-0.707-3.651,0
		c-1.296,0.707-2.474-0.471-3.65-1.178c-0.707-0.942-1.768-1.413-2.944-0.707c-1.179,0.472-2.238-0.471-2.945-1.413
		c-0.941-0.941-1.413-1.178-2.474-1.178c-1.648,0-2.944-0.707-3.651-2.945c-0.234-1.413-1.178-2.002-2.237-2.002
		c-1.413,0-2.237,0.471-2.475-0.707c-0.471-1.178-0.234-2.474,1.414-3.887c1.178-1.531,4.122-4.712,4.122-7.539
		c0-2.474-4.947-1.414-5.418,4.947c-0.472,0.234-1.178-0.473-1.178-1.649c-1.179,2.475-2.003,5.419-1.769,6.832
		c-0.941-0.707-1.413-2.474-1.413-2.474s-3.887,2.709-4.594,6.597c-0.707-3.416-2.003-2.474-2.237-2.474
		c-0.235,0.234-0.472,0.471-0.707,0.941c-1.179,2.002,0,4.358,0.707,4.829c0.706,0.235,2.474,0.707,3.887,1.768
		c1.179,1.414,2.475,3.888,0.235,5.653c0.707-1.178-0.235-2.943-1.178-2.943c-2.238,0.471-4.358-1.414-4.947-2.003
		c-0.941-0.707-3.416,0-4.946,0.234c-1.769,0.473-3.652,2.475-3.652,4.594c-0.941-0.705-2.002-2.709-0.706-4.594
		c-0.942,0-2.945,1.178-2.945,2.238c-0.706-0.471-1.767-2.002-0.234-3.651c-0.942,0-2.945,0.707-2.945,2.238
		c-3.887-4.595,5.89-5.654,8.363-6.361c0-0.706-0.941-1.647-1.179-2.002c-1.412,0-3.65-1.768-4.711-2.474
		c-3.416-2.003-6.832-1.769-7.067,0.235c-0.472-0.707-1.413-2.475,0.707-3.888c-1.179-0.472-2.475-0.235-4.123,1.413
		c0-0.234-0.235-2.944,2.003-3.887c-0.942-0.707-3.651-0.472-4.712,0.471c2.474-5.89,9.776-0.471,12.015,0.472
		c2.238,0.941,3.652-2.237,4.123-4.946c0.707-2.003,0.707-2.945,1.413-4.358c0.472-0.707,0.707-1.414,1.179-1.768
		c0.235-0.472,0.472-0.942,0.706-1.179c0.473-1.178,0.942-2.474,1.414-3.415c1.531-4.595,3.416-10.483-0.235-14.488
		c-2.944-2.944-6.831-2.944-9.069-2.475c-1.413,0.235-3.651,0.942-6.125,1.414c-1.767,0.706-3.888,1.179-4.358,1.768
		c-0.472-0.707,0.235-1.768,0.707-2.003c-1.179-1.179-2.944,0.707-3.181,3.888c-3.181-3.651-2.003-7.304,0.235-8.835
		c-2.238-3.887,2.474-7.656,6.125-8.834c3.181-1.178,10.602-2.709,8.362-8.128c-1.178-2.944-3.18-6.36-5.653-8.6
		c-4.711-4.357-10.602-8.362-16.138-11.543c-5.183-2.944-10.482-4.711-15.901-6.832c-1.179-0.707-2.944-1.531-4.122-2.237
		c2.474,0.471,4.946,0.235,3.18-0.942c-2.002-1.178-4.947-3.65-6.831-5.89c2.944,1.414,5.418,1.178,3.415,0
		c-2.002-1.414-6.125-4.358-7.656-8.363c2.475,2.238,6.598,3.652,5.184,2.238c-1.179-1.179-10.247-10.013-6.125-24.029
		c0.472,8.363,2.237,8.834,2.944,9.541c-1.648-8.599,0-16.373,1.413-18.61c-0.234,8.127,1.179,10.719,3.182,12.485
		c-1.179-9.069,1.413-14.724,2.943-16.138c-1.413,9.541-0.471,19.906,9.307,25.208c-0.235-2.002,0.234-3.888,0.234-3.888
		s0.236,2.475,2.71,4.711c2.475,2.475,12.485,8.6,19.671,14.254c7.656,5.418,12.957,10.836,16.962,20.143
		c4.358,9.07,9.07,17.904,13.664,20.377c0,0,10.838-0.234,16.373-23.793c2.002-9.07,10.72-22.969,25.914-28.977
		c12.722-4.711,29.212-13.192,33.807-20.379c0.234,3.416-2.002,8.834-6.125,11.779c7.655-2.238,17.196-9.775,20.378-15.666
		c-0.942,6.596-7.421,16.137-15.195,19.553c10.837-2.709,21.32-11.308,23.794-16.373c0.707,5.891-8.599,16.963-14.959,19.318
		c7.421-1.414,13.781-3.65,17.668-8.599C441.728,29.562,436.78,35.688,424.059,39.811 M329.236,140.287
		c0-1.414-4.123,0.235-5.184,2.474c0.707,0.706,2.003,2.475,1.649,3.888c0.471,0.707,0.471,2.003,0.471,2.003
		C329.708,147.236,329.236,141.582,329.236,140.287"/>
</g>
<g>
	<path fill="#092041" d="M36.924,219.368l-6.485-15.631l-6.484,15.631H36.924z M39.471,225.737h-18.41l-5.326,12.271H8.093
		l19.683-44.692h4.748c3.588,8.917,19.683,44.692,19.683,44.692h-7.411L39.471,225.737z"/>
	<path fill="#092041" d="M547.526,219.368l-6.485-15.631l-6.484,15.631H547.526z M550.073,225.737h-18.411l-5.324,12.271h-7.642
		l19.683-44.692h4.748c3.588,8.917,19.682,44.692,19.682,44.692H555.4L550.073,225.737z"/>
	<polygon fill="#092041" points="161.853,199.685 143.907,199.685 143.907,210.454 161.391,210.454 161.391,216.822 
		143.907,216.822 143.907,231.641 161.853,231.641 161.853,238.01 137.307,238.01 137.307,193.434 161.853,193.434 	"/>
	<path fill="#092041" d="M191.03,213.928h2.085c6.368,0,9.609-2.434,9.609-7.296c0-4.516-3.01-6.83-9.263-6.83h-2.431V213.928
		L191.03,213.928z M199.366,218.905l13.779,18.989h-8.221l-12.736-18.181h-1.158v18.181h-6.715v-44.693h7.874
		c5.905,0,10.188,1.043,12.736,3.358c2.896,2.432,4.399,5.79,4.399,9.726c0,3.241-0.926,5.905-2.777,8.221
		C204.809,216.938,202.377,218.326,199.366,218.905"/>
	<rect x="233.639" y="193.434" fill="#092041" width="6.715" height="44.69"/>
	<path fill="#092041" d="M295.93,195.865v7.987c-3.937-3.242-7.873-4.861-12.156-4.861c-4.517,0-8.453,1.619-11.579,4.978
		c-3.242,3.358-4.747,7.294-4.747,12.042c0,4.747,1.505,8.685,4.747,11.811c3.24,3.126,6.946,4.863,11.694,4.863
		c2.432,0,4.398-0.465,6.021-1.157c0.926-0.465,1.853-0.928,2.895-1.506c1.042-0.579,1.968-1.507,3.243-2.433v8.104
		c-3.822,2.084-7.874,3.242-12.157,3.242c-6.368,0-11.81-2.315-16.441-6.717c-4.516-4.515-6.716-9.841-6.716-16.209
		c0-5.675,1.854-10.769,5.674-15.166c4.516-5.442,10.651-8.222,17.946-8.222C288.288,192.508,292.109,193.549,295.93,195.865"/>
	<polygon fill="#092041" points="501.56,199.685 483.613,199.685 483.613,210.454 500.866,210.454 500.866,216.822 483.613,216.822 
		483.613,231.641 501.56,231.641 501.56,238.01 476.898,238.01 476.898,193.434 501.56,193.434 	"/>
	<path fill="#092041" d="M599.164,214.853h18.409v1.505c0,3.356-0.464,6.368-1.155,8.916c-0.812,2.432-2.086,4.514-3.939,6.715
		c-4.05,4.747-9.376,6.947-15.744,6.947c-6.254,0-11.579-2.315-16.094-6.831c-4.4-4.517-6.716-10.072-6.716-16.209
		c0-6.484,2.314-12.043,6.831-16.441c4.516-4.516,10.073-6.831,16.557-6.831c3.475,0,6.716,0.812,9.728,2.085
		c2.895,1.389,5.79,3.819,8.452,6.945l-4.863,4.516c-3.589-4.862-7.991-7.294-13.315-7.294c-4.747,0-8.685,1.62-11.809,4.862
		c-3.242,3.242-4.863,7.179-4.863,12.042c0,4.979,1.853,9.146,5.325,12.271c3.358,3.011,6.946,4.399,10.77,4.399
		c3.356,0,6.251-1.04,8.914-3.357c2.548-2.314,4.053-4.979,4.4-8.104h-11.117v-6.368h0.231L599.164,214.853L599.164,214.853z"/>
	<polygon fill="#092041" points="644.667,193.434 644.667,231.641 657.75,231.641 657.75,238.01 638.068,238.01 638.068,193.434 	
		"/>
	<polygon fill="#092041" points="678.245,193.434 678.245,238.01 702.907,238.01 702.907,231.641 684.961,231.641 684.961,216.822 
		702.329,216.822 702.329,210.454 684.961,210.454 684.961,199.685 702.907,199.685 702.907,193.434 	"/>
	<path fill="#092041" d="M342.128,219.368l-6.485-15.631l-6.482,15.631H342.128z M344.674,225.737h-18.41l-5.326,12.271h-7.524
		l19.683-44.692h4.748c3.589,8.917,19.684,44.692,19.684,44.692h-7.643L344.674,225.737z"/>
	<polygon fill="#092041" points="79.532,211.032 91.573,238.01 93.31,238.01 105.699,211.032 109.867,238.01 116.93,238.01 
		109.056,193.085 107.088,193.085 92.615,224.694 78.606,193.085 76.637,193.085 67.838,238.01 74.785,238.01 	"/>
	<g>
		<polygon fill="#092041" points="415.765,238.01 415.765,193.434 409.05,193.434 409.05,224.347 377.673,193.085 375.009,193.085 
			375.009,238.01 381.726,238.01 381.726,206.632 413.102,238.01 		"/>
	</g>
</g>
</svg>
